<?xml version="1.0" encoding="UTF-8"?>
<svg xmlns="http://www.w3.org/2000/svg" viewBox="0 0 199.08 68.97">
  <defs>
    <style>.cls-1{fill:#cc962b;}</style>
  </defs>
  <g id="Layer_2">
    <g id="Layer_1-2">
      <path class="cls-1" d="M21.61,53.69A31.37,31.37,0,0,1,11,52a18.25,18.25,0,0,1-7.76-5A13.15,13.15,0,0,1,0,38.7a12.28,12.28,0,0,1,.64-4.42,24.31,24.31,0,0,1,2.16-4.81,20.8,20.8,0,0,1,3.3-4.31,14.48,14.48,0,0,1,4.1-2.92,1.69,1.69,0,0,1,.56-.17,4.26,4.26,0,0,1,.56-.06c.24,0,.36.06.36.17s-.3.52-.89.95a17.6,17.6,0,0,0-4.07,4.48A19.91,19.91,0,0,0,4.26,33a21.22,21.22,0,0,0-.82,5.84,11.46,11.46,0,0,0,1.5,6A12.45,12.45,0,0,0,9,49a18.54,18.54,0,0,0,5.79,2.39,29.41,29.41,0,0,0,6.78.77,34.93,34.93,0,0,0,7.82-.89,29.86,29.86,0,0,0,7.05-2.54,22.81,22.81,0,0,0,7.76-6.43A12.74,12.74,0,0,0,47,34.69a9,9,0,0,0-.86-3.83,9.18,9.18,0,0,0-2.74-3.31A19.91,19.91,0,0,0,40,25.43q-2-1-4.31-1.95c-1.51-.63-3-1.27-4.45-1.91a24.51,24.51,0,0,1-3.84-2.1,11.23,11.23,0,0,1-3.45-3.42,7.07,7.07,0,0,1-1.09-3.66,8,8,0,0,1,1.27-4.25A13.72,13.72,0,0,1,27.6,4.4a17.42,17.42,0,0,1,5-2.63A34,34,0,0,1,37.86.47,35.18,35.18,0,0,1,43.5,0a28.13,28.13,0,0,1,4.39.33,11.5,11.5,0,0,1,3.69,1.15A7.42,7.42,0,0,1,54.65,4a5.76,5.76,0,0,1,1.06,3.28,5.27,5.27,0,0,1-2.12,4.13,12.51,12.51,0,0,1-1.71,1.09,10.81,10.81,0,0,1-2.25.85,2.09,2.09,0,0,1-.53.06c-.47,0-.7-.13-.7-.41s.12-.32.38-.5a2.31,2.31,0,0,1,1.15-.33,3.86,3.86,0,0,0,3.6-4,5.42,5.42,0,0,0-1-3,7.83,7.83,0,0,0-3.16-2.53,12.42,12.42,0,0,0-5.43-1A23.07,23.07,0,0,0,39.75,2a31.14,31.14,0,0,0-4.92,1.35,13.65,13.65,0,0,0-5.4,3.31,6.56,6.56,0,0,0-2.16,4.66,5.63,5.63,0,0,0,1,3.1,10.52,10.52,0,0,0,3.33,3,48.3,48.3,0,0,0,4.42,2.33l5,2.3a37.3,37.3,0,0,1,4.6,2.45,13.83,13.83,0,0,1,4.66,4.3,8.87,8.87,0,0,1,1.42,4.72,11.2,11.2,0,0,1-1.68,5.7,24,24,0,0,1-4.4,5.37,36.12,36.12,0,0,1-6,4.45,32.49,32.49,0,0,1-8.52,3.45A38.61,38.61,0,0,1,21.61,53.69Z"/>
      <path class="cls-1" d="M58.84,48.26A5.11,5.11,0,0,1,57.27,48a3.48,3.48,0,0,1-1.59-1.09A3.64,3.64,0,0,1,55,44.49a6.47,6.47,0,0,1,.74-3c.49-1,.95-1.9,1.39-2.81a.77.77,0,0,1-.39-.11.4.4,0,0,1-.2-.36,1.19,1.19,0,0,1,.11-.47c.16-.31.34-.65.54-1s.37-.73.53-1.12q.89-1.83,1.77-3.51c.59-1.13,1.1-2.12,1.53-3a2.29,2.29,0,0,1,2.24-1.3h3.66a12,12,0,0,0-1.8,1.68,16.41,16.41,0,0,0-2,3.33c-.56,1.1-1,2.08-1.45,2.92s-.83,1.71-1.24,2.57-.76,1.59-1,2.18a15.69,15.69,0,0,0-1,2.63,8.07,8.07,0,0,0-.23,1.8c0,1.3.43,1.95,1.3,1.95s2.08-.77,3.42-2.31a32.54,32.54,0,0,0,3.24-4.66c1.07-1.81,2.08-3.67,3-5.6s1.82-3.66,2.57-5.19a2.34,2.34,0,0,1,2.3-1.3h3.25a12.75,12.75,0,0,0-1.48,1.33,7.62,7.62,0,0,0-1.15,1.65c-.37.69-.88,1.66-1.51,2.92l-1.62,3.39q-.85,1.8-1.5,3.39a13.35,13.35,0,0,0-.83,2.6c0,.39-.08.69-.12.88a3.34,3.34,0,0,0-.06.65,2.55,2.55,0,0,0,.39,1.6,1.15,1.15,0,0,0,.91.47,4,4,0,0,0,2.86-1.59A22.63,22.63,0,0,0,76,41.24c.88-1.53,1.64-3,2.27-4.36.23-.44.45-.65.65-.65s.35.13.35.41a1.57,1.57,0,0,1-.23.71c-.44.94-1,2-1.6,3.24a36.81,36.81,0,0,1-2.12,3.6,13,13,0,0,1-2.6,2.92,4.73,4.73,0,0,1-3.07,1.15,3,3,0,0,1-2.41-1.09,4.6,4.6,0,0,1-1-3.1,11.28,11.28,0,0,1,.59-3.42,35.44,35.44,0,0,1-2.3,3.54,14.67,14.67,0,0,1-2.77,2.92A4.79,4.79,0,0,1,58.84,48.26Z"/>
      <path class="cls-1" d="M85.15,48.32a3.54,3.54,0,0,1-2.24-.91,3.63,3.63,0,0,1-1.12-3,10.54,10.54,0,0,1,.77-3.66,18.7,18.7,0,0,1,1.91-3.89,24.94,24.94,0,0,0,1.74-3.07,2.4,2.4,0,0,0,.18-.83c0-.71-.44-1.22-1.33-1.53a11.26,11.26,0,0,0-3.45-.53l-.71,1.94q-.65,1.89-1.8,4.43a52.66,52.66,0,0,1-2.53,4.9A17.73,17.73,0,0,1,73.71,46a.41.41,0,0,1-.3.12c-.16,0-.26-.1-.32-.3a.79.79,0,0,1,.26-.7,41.89,41.89,0,0,0,4.13-6.82,59.63,59.63,0,0,0,3.1-7.64,55.63,55.63,0,0,0,1.86-7.2A2.41,2.41,0,0,1,83.09,22a1.43,1.43,0,0,1,1-.45,1.91,1.91,0,0,1,1.42.74,3.08,3.08,0,0,1,.64,2.1c0,.15,0,.33,0,.53s0,.39-.09.59a4.39,4.39,0,0,1-1.39,2.33,22.2,22.2,0,0,1-1.86,1.62c.39,0,.81.07,1.24.09s.91,0,1.42,0a41.68,41.68,0,0,0,5.48-.36,1.9,1.9,0,0,1,.12.54,5.87,5.87,0,0,1-.44,1.94,21.91,21.91,0,0,1-.92,2.13c-.15.35-.47,1-.94,1.91s-1,2-1.53,3.13a30,30,0,0,0-1.39,3.42,9.46,9.46,0,0,0-.56,2.86c0,1,.39,1.54,1.18,1.54a2.92,2.92,0,0,0,2-1.15,19.08,19.08,0,0,0,2.09-2.83c.69-1.13,1.32-2.23,1.89-3.31s1-1.94,1.33-2.56c.15-.4.37-.59.65-.59s.23.13.23.41a2.26,2.26,0,0,1-.18.71q-.64,1.35-1.53,3.06a34.9,34.9,0,0,1-2,3.37,16.13,16.13,0,0,1-2.36,2.86,5.88,5.88,0,0,1-2.74,1.56A2.33,2.33,0,0,1,85.15,48.32Z"/>
      <path class="cls-1" d="M86.51,69a4,4,0,0,1-2.27-.65,2.84,2.84,0,0,1-1-2.53,26.13,26.13,0,0,1,1.77-8q1.77-5.07,4.31-11.15a4.77,4.77,0,0,1-.71-2.48,3.14,3.14,0,0,1,1.18-2.83,2.61,2.61,0,0,1,2.13-.65q2.11-4.77,4.3-9.41t4.22-8.76q2-4.12,3.69-7.26a11.58,11.58,0,0,1,2.09-3,4,4,0,0,1,2.86-1.06,4.71,4.71,0,0,1,1.27.21,3.8,3.8,0,0,0,1.33.15,27.87,27.87,0,0,0-3.39,4.33c-1.36,2-2.82,4.44-4.4,7.23s-3.17,5.81-4.81,9.06S95.91,38.67,94.41,42A10.42,10.42,0,0,1,95.5,43.9a9.59,9.59,0,0,1,.8,2.53,1.43,1.43,0,0,0,.06.39c0,.14.08.26.12.38a3.87,3.87,0,0,0,2.62-.94,12.14,12.14,0,0,0,2.42-2.66,33.66,33.66,0,0,0,2.13-3.48q1-1.83,1.68-3.42a.64.64,0,0,1,.32-.33,1.1,1.1,0,0,1,.33-.08.38.38,0,0,1,.35.2.71.71,0,0,1-.06.62q-.83,1.83-1.83,3.81a26.08,26.08,0,0,1-2.24,3.66,12.44,12.44,0,0,1-2.65,2.71,5,5,0,0,1-3,1,6,6,0,0,1,.06.86v.91a29.27,29.27,0,0,1-.74,6.37,28.1,28.1,0,0,1-2.1,6.14,15.71,15.71,0,0,1-3.18,4.6A5.73,5.73,0,0,1,86.51,69Zm.88-1.59a2.43,2.43,0,0,0,1.42-.68A9.05,9.05,0,0,0,90.4,65,20.42,20.42,0,0,0,93,60.18a38,38,0,0,0,1.77-5.9,25.16,25.16,0,0,0,.59-5.72l-.27,0-.26,0a5.3,5.3,0,0,1-3-1c-1,2.64-2,5.24-2.86,7.82s-1.57,4.85-2,6.82c-.16.74-.27,1.39-.35,1.94a10,10,0,0,0-.12,1.42C86.51,66.79,86.8,67.38,87.39,67.38Zm7.5-19.94h.29a7.71,7.71,0,0,0-.53-2.66,5,5,0,0,0-.89-1.41c-.23.55-.44,1.05-.61,1.5s-.39,1-.62,1.5C92.88,47.08,93.67,47.44,94.89,47.44Z"/>
      <path class="cls-1" d="M135.77,51.86a15.64,15.64,0,0,1-5-.77,10.06,10.06,0,0,1-5.7-4.83A17.06,17.06,0,0,1,123,37.58a24.77,24.77,0,0,1,1.77-8.91,12.6,12.6,0,0,1-3.13-3.18,9,9,0,0,1-1.47-4.25,6.79,6.79,0,0,1-.06-.86v-.79a14.14,14.14,0,0,1,1.86-7.26,17.3,17.3,0,0,1,5-5.4,24,24,0,0,1,7-3.36,27.68,27.68,0,0,1,7.91-1.15,25.13,25.13,0,0,1,7.67,1.18,19.18,19.18,0,0,1,6.64,3.66,16.65,16.65,0,0,1,4.54,6.28,20.93,20.93,0,0,1,1.39,9.12,46.12,46.12,0,0,0,4.54-3.43,13,13,0,0,0,3.24-4,.89.89,0,0,1,.77-.59q.36,0,.36.42a2.65,2.65,0,0,1-.06.32,1.27,1.27,0,0,1-.18.44,31.84,31.84,0,0,1-3.84,4.9,24.67,24.67,0,0,1-5.07,4.07,20.39,20.39,0,0,1-.38,2.92,27.88,27.88,0,0,1-.92,3.39A28.36,28.36,0,0,1,157,38.35a36.9,36.9,0,0,1-5.81,6.73A29.52,29.52,0,0,1,143.86,50,18.85,18.85,0,0,1,135.77,51.86ZM137.72,30a41.52,41.52,0,0,0,10.47-1.44,48.89,48.89,0,0,0,10.36-4,9.64,9.64,0,0,0,.11-1.5V21.59a22.38,22.38,0,0,0-1.38-8.29,15.44,15.44,0,0,0-3.75-5.63,15,15,0,0,0-5.31-3.21,18.4,18.4,0,0,0-6.13-1,21.52,21.52,0,0,0-6.79,1.12,20.49,20.49,0,0,0-6.08,3.22,16.19,16.19,0,0,0-4.33,5,13.41,13.41,0,0,0-1.63,6.61,15.15,15.15,0,0,0,.18,2.3,7,7,0,0,0,2.36,4.49,36,36,0,0,1,2.24-4,48.85,48.85,0,0,1,3.28-4.48,35.11,35.11,0,0,1,4-4.16,21,21,0,0,1,4.48-3,10.49,10.49,0,0,1,4.69-1.15,9,9,0,0,1,2,.24,6.55,6.55,0,0,1,2,.82c.31.2.47.38.47.53s-.09.22-.27.3a1,1,0,0,1-.68,0,5.7,5.7,0,0,0-1.71-.24A8.57,8.57,0,0,0,142,12.3a21.2,21.2,0,0,0-4.25,3.31A39.91,39.91,0,0,0,133.94,20a50.92,50.92,0,0,0-3.09,4.54,40.3,40.3,0,0,0-2,3.75A20.7,20.7,0,0,0,137.72,30Zm-1.48,20.48a13.84,13.84,0,0,0,6.47-1.66,24,24,0,0,0,5.95-4.48,37.15,37.15,0,0,0,8.47-13.45c.24-.67.45-1.37.65-2.1a10,10,0,0,0,.35-2.09,44.73,44.73,0,0,1-10.2,3.89,42.58,42.58,0,0,1-10.39,1.36A26.23,26.23,0,0,1,128,30.33a24.84,24.84,0,0,0-1.82,9.14,13.91,13.91,0,0,0,1.18,5.84,8,8,0,0,0,3.71,3.9A12,12,0,0,0,136.24,50.45Z"/>
      <path class="cls-1" d="M157.9,48.73q2.11-4.3,4.1-8.52t4-8.05a15.82,15.82,0,0,1,2-3,2.79,2.79,0,0,1,2.15-.86,3.68,3.68,0,0,1,1,.15,3.93,3.93,0,0,0,1.06.15,1.82,1.82,0,0,0,.54-.06,8,8,0,0,0-2.13,2.33c-.86,1.24-1.75,2.66-2.65,4.27s-1.71,3.13-2.42,4.55c.74-.91,1.52-1.81,2.33-2.72a25.38,25.38,0,0,1,2.68-2.59A35.47,35.47,0,0,1,174,31.83a29.82,29.82,0,0,1,3.87-2.21,7.69,7.69,0,0,1,3-.89,2.07,2.07,0,0,1,.59.06c-.87,1.54-1.62,2.92-2.27,4.16s-1.31,2.56-2,4-1.27,2.73-1.8,4a16.74,16.74,0,0,0-1,3.21,6.27,6.27,0,0,0-.18,1.42,1.59,1.59,0,0,0,.36,1.24,1.19,1.19,0,0,0,.76.29,3.49,3.49,0,0,0,2.36-1.21,17.1,17.1,0,0,0,2.39-3q1.15-1.77,2.07-3.45c.61-1.12,1-2,1.32-2.56a1.72,1.72,0,0,1,.36-.56.56.56,0,0,1,.35-.09c.24,0,.36.15.36.47a1.46,1.46,0,0,1-.18.65l-1.68,3.24a34.94,34.94,0,0,1-2.21,3.69,14.77,14.77,0,0,1-2.72,3,4.89,4.89,0,0,1-3.18,1.21,4.49,4.49,0,0,1-2.45-.83,3.38,3.38,0,0,1-1.27-3.07,8.59,8.59,0,0,1,.12-1.38,9.16,9.16,0,0,1,.41-1.62c.31-.79.69-1.64,1.12-2.54a40.92,40.92,0,0,1,2.12-3.72,3.88,3.88,0,0,0,.51-1,3,3,0,0,0,.08-.59c0-.47-.21-.71-.64-.71a3.67,3.67,0,0,0-1.57.59,13.71,13.71,0,0,0-2.56,2.07,38.54,38.54,0,0,0-3.52,4,52.73,52.73,0,0,0-4.69,7.67c-.27.51-.58.79-.91.82s-.8.08-1.39.12l-1.12.09A1.49,1.49,0,0,0,157.9,48.73Z"/>
      <path class="cls-1" d="M187.52,48.5a6,6,0,0,1-3.93-1.42,5.22,5.22,0,0,1-1.74-4.3,14.52,14.52,0,0,1,1.3-5.7,20.26,20.26,0,0,1,3.3-5.34,16,16,0,0,1,3.84-3.3,7.69,7.69,0,0,1,4-1.3,3.65,3.65,0,0,1,2.24.71,2.58,2.58,0,0,1,1,2.18,6.19,6.19,0,0,1-1.12,3.25,12.47,12.47,0,0,1-3.18,3.3A11.77,11.77,0,0,1,191,37.82a21.1,21.1,0,0,1-2.72,1,8.42,8.42,0,0,1-2.24.39,11.79,11.79,0,0,0-.56,1.88,10.88,10.88,0,0,0-.27,2.42,5.91,5.91,0,0,0,.59,2.66A2.22,2.22,0,0,0,188,47.32a6,6,0,0,0,3.54-1.12,12.36,12.36,0,0,0,2.83-2.81A22.84,22.84,0,0,0,196.45,40c.57-1.14,1-2.1,1.39-2.89.24-.55.55-.82.94-.82.2,0,.3.09.3.29a1.38,1.38,0,0,1-.18.59q-.83,1.77-1.77,3.75a22.44,22.44,0,0,1-2.24,3.71,10.62,10.62,0,0,1-3.1,2.81A8.32,8.32,0,0,1,187.52,48.5Zm-1.07-10.39a10.79,10.79,0,0,0,2.78-.61,10.52,10.52,0,0,0,3.54-2,10.41,10.41,0,0,0,2.36-3A6.33,6.33,0,0,0,196,29.8c0-.87-.31-1.3-.94-1.3a3.72,3.72,0,0,0-1.95.94A19.87,19.87,0,0,0,190,32.63a30.11,30.11,0,0,0-2.12,3.07C187.2,36.8,186.73,37.6,186.45,38.11Z"/>
    </g>
  </g>
</svg>
